<?xml version="1.0" standalone="no"?><!DOCTYPE svg PUBLIC "-//W3C//DTD SVG 1.1//EN" "http://www.w3.org/Graphics/SVG/1.1/DTD/svg11.dtd"><svg t="1541333194485" class="icon" style="" viewBox="0 0 1024 1024" version="1.1" xmlns="http://www.w3.org/2000/svg" p-id="2182" xmlns:xlink="http://www.w3.org/1999/xlink" width="32" height="32"><defs><style type="text/css"></style></defs><path d="M146.272 768q0-14.848-10.848-25.728t-25.728-10.848-25.728 10.848-10.848 25.728 10.848 25.728 25.728 10.848 25.728-10.848 10.848-25.728zM950.848 438.848q0-29.152-22.272-51.136t-50.848-22.016l-329.152 0q0-11.424 8.576-27.712t18.848-31.424 18.848-38.848 8.576-48.288q0-38.272-25.44-55.712t-66.016-17.44q-13.728 0-51.424 79.424-13.728 25.152-21.152 37.152-22.848 36.576-64 82.848-40.576 46.272-57.728 60.576-39.424 32.576-80 32.576l-18.272 0 0 365.728 18.272 0q41.152 0 95.424 18.272t110.56 36.576 102.56 18.272q108 0 108-95.424 0-14.848-2.848-32 17.152-9.152 27.136-30.016t10.016-42.016-10.272-39.424q30.272-28.576 30.272-68 0-14.272-5.728-31.712t-14.272-27.136l189.152 0q29.728 0 51.424-21.728t21.728-51.424zM1024 438.272q0 60-43.136 103.424t-103.136 43.424l-96.576 0q-2.272 35.424-21.152 68 1.728 12 1.728 24.576 0 57.728-34.272 101.728 0.576 79.424-48.576 125.44t-129.728 46.016q-76 0-184-39.424-93.728-33.728-127.424-33.728l-164.576 0q-30.272 0-51.712-21.44t-21.44-51.712l0-365.728q0-30.272 21.44-51.712t51.712-21.44l164.576 0q5.728 0 12.288-2.56t13.44-8 12.864-10.272 13.728-12.864 11.712-12.288 10.848-12.288 8-9.728q37.152-42.272 57.152-73.728 7.424-12 18.848-35.424t21.152-41.152 23.136-36 31.424-28.288 39.712-10.016q71.424 0 117.984 38.272t46.56 108q0 38.848-12.576 73.152l213.728 0q59.424 0 102.848 43.424t43.424 102.272z" p-id="2183"></path></svg>